<svg xmlns="http://www.w3.org/2000/svg" viewBox="0 0 400 240" fill="none">
  <defs><linearGradient id="bg" x1="0" y1="0" x2="0" y2="1"><stop offset="0" stop-color="#d4f4e8"/><stop offset="0.56" stop-color="#83dcbc"/><stop offset="1" stop-color="#1b9f73"/></linearGradient></defs>
  <rect width="400" height="240" fill="url(#bg)"/>
  <circle cx="304" cy="48" r="16" fill="#fdf4cd" fill-opacity="0.86"/>
  <path d="M0 170C40 150 88 140 140 142C184 144 232 154 282 148C328 142 366 150 400 166V240H0V170Z" fill="#69c89f" fill-opacity="0.5"/>
  <g fill="#fef8dc" fill-opacity="0.66">
    <circle cx="86" cy="130" r="3"/><circle cx="112" cy="116" r="2.8"/><circle cx="138" cy="136" r="2.6"/><circle cx="162" cy="124" r="2.9"/><circle cx="188" cy="142" r="2.7"/>
    <circle cx="306" cy="128" r="3"/><circle cx="332" cy="120" r="2.7"/><circle cx="354" cy="138" r="2.8"/>
  </g>
  <path d="M20 210C102 198 180 194 266 198C314 200 356 204 390 210" stroke="#d2ffee" stroke-opacity="0.48" stroke-width="3"/>
</svg>
