<svg xmlns="http://www.w3.org/2000/svg" viewBox="0 0 400 240" fill="none">
  <defs><linearGradient id="bg" x1="0" y1="0" x2="0" y2="1"><stop offset="0" stop-color="#eaf5ff"/><stop offset="0.55" stop-color="#9bc9e9"/><stop offset="1" stop-color="#4f88b3"/></linearGradient></defs>
  <rect width="400" height="240" fill="url(#bg)"/>
  <g fill="#cfe3f2" fill-opacity="0.8">
    <path d="M0 156C42 128 84 124 126 130C170 136 210 152 256 146C304 140 356 146 400 164V240H0V156Z"/>
    <path d="M0 178C52 154 98 150 144 154C192 158 244 170 294 166C340 162 374 170 400 180V240H0V178Z" fill-opacity="0.74"/>
  </g>
  <path d="M0 198C64 182 128 178 196 182C266 186 334 198 400 214V240H0V198Z" fill="#3a6e94" fill-opacity="0.66"/>
  <rect y="108" width="400" height="46" fill="#f5fbff" fill-opacity="0.22"/>
</svg>
